<svg id="Layer_1" height="512" width="512" xmlns="http://www.w3.org/2000/svg"><path d="M474.488 390.293h-13.447v-50.522c0-6.892-5.607-12.499-12.499-12.499h-43.998c-6.892 0-12.499 5.607-12.499 12.499v50.576a7.515 7.515 0 00-.867-.054h-42.425v-50.522c0-6.892-5.607-12.499-12.499-12.499h-43.998c-6.892 0-12.499 5.607-12.499 12.499v50.522H254.89a49.413 49.413 0 00-18.865-13.073l-1.356-33.49c10.967-3.503 18.933-13.788 18.933-25.902v-56.252c0-13.691-10.174-25.045-23.358-26.912l-1.276-31.439 45.944-50.297 38.436 51.256a29.328 29.328 0 0019.162 11.457c2.914 18.292 18.795 32.319 37.895 32.319 11.115 0 21.657-4.912 28.873-13.137l15.494 7.636a40.17 40.17 0 00.649 23.82c3.47 10.219 10.711 18.475 20.391 23.247 5.643 2.782 11.718 4.185 17.83 4.185 4.373 0 8.765-.719 13.027-2.166a7.499 7.499 0 004.69-9.513 7.5 7.5 0 00-9.512-4.69c-6.426 2.182-13.316 1.73-19.402-1.27s-10.639-8.191-12.821-14.616c-4.504-13.263 2.623-27.718 15.886-32.222 6.425-2.182 13.316-1.73 19.402 1.27s10.639 8.191 12.821 14.616a7.5 7.5 0 0014.202-4.823c-3.47-10.219-10.711-18.475-20.39-23.247-9.681-4.772-20.639-5.489-30.857-2.019a40.156 40.156 0 00-19.279 13.976l-14.637-7.214a38.407 38.407 0 002.002-12.211c0-14.36-7.816-27.14-20.051-33.738a29.313 29.313 0 00-4.132-20.707L338.095 81.35c6.859-14.322 4.028-31.837-7.512-43.276l-27.316-27.056a37.79 37.79 0 00-52.487-.824L140.907 112.448h-35.528a65.633 65.633 0 00-65.75 63.132l-2.41 59.356c-12.395 2.525-21.751 13.51-21.751 26.64v56.252c0 11.528 7.216 21.396 17.365 25.343L31.45 377.22C13.077 384.369.014 402.236.014 423.106V499.5c0 6.892 5.607 12.499 12.499 12.499h242.448c6.892 0 12.499-5.607 12.499-12.499v-6.353h172.49a7.5 7.5 0 000-15H267.46v-55.042a48.934 48.934 0 00-3.35-17.814h210.378c12.406 0 22.499 10.093 22.499 22.499v27.859c0 12.406-10.093 22.499-22.499 22.499h-4.54a7.5 7.5 0 000 15h4.54c20.677 0 37.498-16.821 37.498-37.498v-27.859c0-20.677-16.821-37.498-37.498-37.498zm-92.055-200.768c6.948 4.141 11.34 11.655 11.34 20.058 0 4.204-1.126 8.322-3.261 11.913-4.259 7.179-11.776 11.466-20.108 11.466-11.381 0-20.883-8.176-22.955-18.962a29.728 29.728 0 006.107-3.228l22.841-15.719a29.663 29.663 0 006.036-5.528zm-10.532-26.387a14.358 14.358 0 01.846 13.845c-.031.067-.065.132-.094.201a14.375 14.375 0 01-4.76 5.513l-22.839 15.718a14.393 14.393 0 01-6.449 2.447l-.042.005a14.39 14.39 0 01-13.217-5.682l-40.139-53.526 43.295-47.397zM54.615 176.189a50.674 50.674 0 0150.764-48.742h56.717c8.265 0 16.149 1.922 23.431 5.714a7.5 7.5 0 006.927-13.304c-9.07-4.723-19.268-7.269-29.543-7.397L261 21.173a22.831 22.831 0 0131.711.498l27.316 27.057c8.613 8.538 9.137 22.544.794 31.703l-50.929 55.755a1.918 1.918 0 01-.042.046l-41.745 45.7-.258-6.353a65.745 65.745 0 00-10.6-33.24 7.498 7.498 0 00-10.378-2.184 7.498 7.498 0 00-2.184 10.378 50.75 50.75 0 018.177 25.655l2.363 58.201H52.252zM30.466 317.828v-56.252c0-6.72 5.467-12.188 12.188-12.188h183.76c6.72 0 12.188 5.467 12.188 12.188v56.252c0 6.72-5.467 12.187-12.188 12.187H42.654c-6.72.001-12.188-5.466-12.188-12.187zm221.995 179.173H15.013v-73.894c0-18.873 15.355-34.228 34.228-34.228h21.293a7.5 7.5 0 000-15c-23.335 0-22.067-.027-23.941.073l1.175-28.937H219.71l1.171 28.937c-2.019-.107 6.507-.073-120.349-.073a7.5 7.5 0 000 15h117.7c18.873 0 34.228 15.355 34.228 34.228l.001 73.894zm81.293-106.711h-38.998v-48.019h38.998zm112.288 0h-38.998v-48.019h38.998z"/><path d="M309.2 443.055c0 13.198 10.738 23.935 23.935 23.935 13.198 0 23.935-10.737 23.935-23.935s-10.738-23.935-23.935-23.935c-13.197-.001-23.935 10.737-23.935 23.935zm32.871 0c0 4.927-4.009 8.936-8.936 8.936s-8.936-4.009-8.936-8.936 4.009-8.936 8.936-8.936 8.936 4.008 8.936 8.936zm72.224 0c0 13.198 10.738 23.935 23.936 23.935s23.935-10.737 23.935-23.935c0-31.632-47.871-31.632-47.871 0zm23.936 8.936c-4.927 0-8.937-4.009-8.937-8.936s4.01-8.936 8.937-8.936 8.936 4.009 8.936 8.936-4.008 8.936-8.936 8.936zM133.737 147.686c-16.578 0-30.066 13.488-30.066 30.066 0 16.579 13.488 30.066 30.066 30.066s30.066-13.488 30.066-30.066-13.488-30.066-30.066-30.066zm0 45.133c-8.308 0-15.067-6.759-15.067-15.067s6.759-15.067 15.067-15.067 15.067 6.759 15.067 15.067-6.759 15.067-15.067 15.067zm150.526-105.7c18.342-8.657 16.937-35.227-2.03-42.031-19.163-6.874-36.868 12.974-28.285 31.157 5.349 11.333 18.88 16.271 30.315 10.874zm-17.038-23.22c2.346-6.539 11.409-6.921 14.349-.693 1.829 3.877.164 8.52-3.713 10.35-6.201 2.925-12.985-3.109-10.636-9.657zM53.913 318.044h57.258a7.5 7.5 0 007.5-7.5v-39.536a7.5 7.5 0 00-7.5-7.5H53.913a7.5 7.5 0 00-7.5 7.5v39.536a7.5 7.5 0 007.5 7.5zm7.499-39.536h42.259v24.537H61.412zm85.004 4.206h3.061a7.5 7.5 0 000-15h-3.061a7.5 7.5 0 000 15zm30.829 0h3.061a7.5 7.5 0 000-15h-3.061a7.5 7.5 0 000 15zm30.83 0h3.061a7.5 7.5 0 000-15h-3.061a7.5 7.5 0 000 15zm-61.659 28.976h3.061a7.5 7.5 0 000-15h-3.061a7.5 7.5 0 000 15zm30.829 0h3.061a7.5 7.5 0 000-15h-3.061a7.5 7.5 0 000 15zm30.83 0h3.061a7.5 7.5 0 000-15h-3.061a7.5 7.5 0 000 15zM61.635 427.427c-13.198 0-23.936 10.737-23.936 23.935s10.738 23.936 23.936 23.936S85.57 464.56 85.57 451.362c0-13.197-10.737-23.935-23.935-23.935zm0 32.872c-4.927 0-8.937-4.009-8.937-8.937 0-4.927 4.009-8.936 8.937-8.936s8.936 4.009 8.936 8.936c0 4.928-4.009 8.937-8.936 8.937zm151.641-41.155h-1.81v-2.497a7.5 7.5 0 00-15 0v2.497h-1.81a7.5 7.5 0 000 15h1.81v35.09a7.5 7.5 0 0015 0v-35.09h1.81a7.5 7.5 0 000-15zm-40.444 27.135h-1.81v-29.633a7.5 7.5 0 00-15 0v29.633h-1.81a7.5 7.5 0 000 15h1.81v7.954a7.5 7.5 0 0015 0v-7.954h1.81a7.5 7.5 0 000-15zm-40.445-18.852h-1.81v-10.781a7.5 7.5 0 00-15 0v10.781h-1.81a7.5 7.5 0 000 15h1.81v26.806a7.5 7.5 0 0015 0v-26.806h1.81a7.5 7.5 0 000-15z"/></svg>