<svg id="_x31__px" height="512" viewBox="0 0 24 24" width="512" xmlns="http://www.w3.org/2000/svg"><path d="M18.677 11.994c-.973 0-2.101-.308-3.396-.922-1.445-.685-2.145-.659-2.604-.64-.372.016-.758.03-1.14-.352-.134-.134-.743-.864.453-2.061.597-.597 1.416-.769 2.128-.779L9.972 3.094A1.46 1.46 0 0111.004.605h.004c.388 0 .752.151 1.026.426l1.723 1.723a1.456 1.456 0 011.302-.803h.003c.147 0 .292.022.429.064a1.463 1.463 0 012.325-.618A1.455 1.455 0 0119.119.59h.003c.388 0 .753.151 1.026.425l2.7 2.7c1.692 1.692 1.507 4.141-.45 6.106l-.011.011-.017.016-1.113 1.114c-.696.688-1.552 1.032-2.58 1.032zm-5.731-2.57c.546 0 1.385.09 2.762.744 2.983 1.414 4.194.727 4.847.085l1.126-1.126.009-.009c1.192-1.204 2.013-3.135.462-4.688l-2.709-2.708a.45.45 0 00-.319-.132h-.001a.456.456 0 00-.325.135.457.457 0 00-.002.646l.675.675a.498.498 0 010 .708.5.5 0 01-.707 0l-1.575-1.575a.457.457 0 00-.647.002.456.456 0 00-.003.645l1.125 1.125a.498.498 0 010 .708.5.5 0 01-.707 0l-1.575-1.575a.45.45 0 00-.319-.132h-.001a.456.456 0 00-.325.135.454.454 0 00-.002.645l1.125 1.125a.498.498 0 010 .708.5.5 0 01-.707 0L11.328 1.74a.558.558 0 00-.321-.133.452.452 0 00-.324.136.458.458 0 00-.003.646l5.175 5.175a.5.5 0 01-.495.833c-.018-.005-1.811-.519-2.662.331-.387.387-.444.625-.434.678.043.03.052.039.374.028.09-.005.192-.01.308-.01z"/><path d="M19.5 17h-13a.5.5 0 01-.49-.402l-2-10A.5.5 0 014.5 6h6.75a.5.5 0 010 1H5.11l1.8 9h12.18l.42-2.098a.5.5 0 01.981.196l-.5 2.5A.502.502 0 0119.5 17z"/><path d="M6.499 17a.5.5 0 01-.489-.402L3.531 4.204A1.504 1.504 0 002.06 2.998h-.001L.501 3H.5a.5.5 0 01-.001-1l1.558-.002h.003c1.188 0 2.219.845 2.452 2.01L6.99 16.402a.498.498 0 01-.491.598z"/><path d="M21.5 19h-17c-.827 0-1.5-.673-1.5-1.5S3.673 16 4.5 16h2a.5.5 0 010 1h-2a.5.5 0 000 1h17a.5.5 0 010 1zM8 24c-1.103 0-2-.897-2-2s.897-2 2-2 2 .897 2 2-.897 2-2 2zm0-3a1.001 1.001 0 000 2 1.001 1.001 0 000-2zm9 3c-1.103 0-2-.897-2-2s.897-2 2-2 2 .897 2 2-.897 2-2 2zm0-3a1.001 1.001 0 000 2 1.001 1.001 0 000-2z"/></svg>