<svg width="50" height="48" fill="none" xmlns="http://www.w3.org/2000/svg"><path d="M44.748 8.863H37.22V3.59A2.933 2.933 0 0034.29.66H15.735a2.933 2.933 0 00-2.93 2.93v5.273H5.253A5.26 5.26 0 000 14.12v27.963a5.26 5.26 0 005.252 5.257h15.842a.976.976 0 100-1.953H5.252a3.305 3.305 0 01-3.299-3.304V25.536a4.714 4.714 0 002.186.872l13.244 1.696v1.346c0 .54.437.977.976.977h.619v3.215a4.602 4.602 0 004.597 4.597h2.85a4.602 4.602 0 004.597-4.597v-3.215h.619a.976.976 0 00.976-.977v-1.346l13.244-1.696a4.71 4.71 0 002.186-.872v16.547a3.305 3.305 0 01-3.299 3.304H28.906a.977.977 0 000 1.953h15.842A5.26 5.26 0 0050 42.083V14.12a5.26 5.26 0 00-5.252-5.257zM35.267 3.59v5.273h-1.954v-3.32a.977.977 0 00-.976-.977h-.892V2.613h2.845c.538 0 .977.438.977.977zm-14.76.976V2.613h8.985v1.953h-8.984zM14.76 3.59c0-.539.438-.977.976-.977h2.82v1.953h-.867a.977.977 0 00-.976.977v3.32H14.76V3.59zm3.906 2.93H31.36v2.343H18.665V6.52zm.67 21.954v-2.79a3.072 3.072 0 013.07-3.07h5.19a3.072 3.072 0 013.07 3.07v2.79h-11.33zm9.734 5.168a2.647 2.647 0 01-2.644 2.644h-2.85a2.647 2.647 0 01-2.644-2.644v-3.215h3.092v2.525a.976.976 0 101.954 0v-2.525h3.092v3.215zm16.544-9.171l-12.996 1.664v-.452a5.028 5.028 0 00-5.022-5.022h-5.19a5.028 5.028 0 00-5.022 5.022v.452L4.388 24.47a2.798 2.798 0 01-2.435-2.77v-7.58a3.305 3.305 0 013.299-3.304h39.496a3.305 3.305 0 013.299 3.304v7.58a2.798 2.798 0 01-2.434 2.77z" fill="#151E45"/></svg>