<svg width="50" height="46" fill="none" xmlns="http://www.w3.org/2000/svg"><path d="M49.894 14.448l-4.699-9.26V1.515A.977.977 0 0044.22.54H5.78a.977.977 0 00-.976.976v3.673l-4.7 9.26A.977.977 0 000 14.89v2.402a5.79 5.79 0 004.805 5.697v20.519h-1a.977.977 0 000 1.953h42.39a.977.977 0 000-1.953h-1V22.989A5.79 5.79 0 0050 17.293V14.89a.975.975 0 00-.106-.442zM6.758 2.492h36.484v1.953H6.758V2.492zm24.018 12.3l-.852-8.393h5.884l2.63 8.636v2.258a3.832 3.832 0 01-3.829 3.827 3.832 3.832 0 01-3.828-3.828V14.89a.985.985 0 00-.005-.099zm-1.948.147v2.354A3.832 3.832 0 0125 21.12a3.832 3.832 0 01-3.828-3.828V14.94l.867-8.54h5.922l.867 8.54zM20.076 6.4l-.852 8.392a.953.953 0 00-.005.099v2.402a3.832 3.832 0 01-3.828 3.828 3.832 3.832 0 01-3.828-3.828v-2.257l2.63-8.636h5.883zM1.953 17.292v-2.168l4.428-8.725h5.77l-2.5 8.206a.978.978 0 00-.042.285v2.402a3.832 3.832 0 01-3.828 3.828 3.832 3.832 0 01-3.828-3.828zm37.383 26.216h-5.86v-6.836h.977a.977.977 0 000-1.953h-.977v-6.836h5.86v15.625zm3.906 0H41.29V26.906a.977.977 0 00-.977-.976H9.687a.977.977 0 00-.976.976v13.672c0 .54.437.977.976.977h21.836v1.953H6.758V22.989a5.792 5.792 0 003.828-2.485 5.78 5.78 0 004.805 2.57c2 0 3.766-1.022 4.804-2.57A5.78 5.78 0 0025 23.074c2 0 3.766-1.022 4.804-2.57a5.78 5.78 0 004.805 2.57c2 0 3.767-1.022 4.805-2.57a5.792 5.792 0 003.828 2.485v20.519zM20.19 27.883h3.402l-1.857 1.857a.977.977 0 001.38 1.38l3.24-3.237h5.17v11.719h-20.86v-2.194l9.525-9.525zm-9.525 6.762v-6.762h6.762l-6.762 6.762zm37.383-17.353a3.832 3.832 0 01-3.828 3.828 3.832 3.832 0 01-3.828-3.828V14.89a.976.976 0 00-.043-.285L37.85 6.4h5.77l4.427 8.725v2.168z" fill="#151E45"/></svg>