<svg width="135" height="44" fill="none" xmlns="http://www.w3.org/2000/svg"><g clip-path="url(#clip0)"><path d="M55.269 19.039h1.6l1.798-6.285h.07l1.793 6.285h1.6l2.529-8.958h-1.745L61.3 16.669h-.08l-1.727-6.586h-1.587l-1.723 6.582H56.1l-1.614-6.583H52.74l2.528 8.958zm10.515 0h1.622v-3.805h4.15v3.805h1.628V10.08h-1.627v3.792h-4.15v-3.791h-1.623v8.957zM76.57 10.08h-1.623v8.958h1.623V10.08zm1.363 1.36h2.769v7.598h1.61v-7.597h2.768v-1.36h-7.147v1.36zm8.524 7.598h5.861v-1.36H88.08v-2.445h3.901v-1.36H88.08v-2.432h4.203v-1.36h-5.826v8.957zm10.537 0h5.567v-1.36h-3.945v-7.597h-1.623v8.957zm8.462 0l.739-2.21h3.368l.744 2.21h1.731l-3.157-8.958h-2.003l-3.154 8.958h1.732zm1.177-3.512l1.211-3.609h.07l1.212 3.609h-2.493zm6.585 3.512h3.626c2.051 0 3.057-1.046 3.057-2.44 0-1.357-.962-2.153-1.916-2.2v-.088c.875-.206 1.566-.818 1.566-1.907 0-1.334-.962-2.322-2.904-2.322h-3.429v8.957zm1.623-1.356v-2.624h1.789c1.001 0 1.622.612 1.622 1.412 0 .713-.49 1.212-1.666 1.212h-1.745zm0-3.792v-2.47h1.64c.953 0 1.448.503 1.448 1.194 0 .787-.639 1.277-1.483 1.277h-1.605zm6.472 5.148h5.86v-1.36h-4.238v-2.445h3.901v-1.36h-3.901v-2.432h4.203v-1.36h-5.825v8.957zm7.48 0h5.568v-1.36h-3.945v-7.597h-1.623v8.957z" fill="#fff"/><path d="M53.344 32.885h.775v-.803h.095c.177.286.517.911 1.524.911 1.307 0 2.218-1.047 2.218-2.707 0-1.647-.911-2.694-2.231-2.694-1.02 0-1.334.626-1.51.898h-.069v-2.572h-.802v6.967zm.789-2.613c0-1.17.517-1.96 1.496-1.96 1.021 0 1.525.858 1.525 1.96 0 1.116-.518 2-1.525 2-.965 0-1.496-.816-1.496-2zm5.381 4.572c.725 0 1.235-.385 1.538-1.198l2.224-5.973-.877-.013-1.443 4.163h-.054L59.46 27.66h-.871l1.932 5.252-.15.408c-.292.796-.653.87-1.238.721l-.204.708c.082.04.313.095.585.095zm7.342-3.388h3.28v1.429h.802v-1.43h.952v-.747h-.952v-4.79h-1.02l-3.062 4.844v.694zm3.28-.748h-2.369v-.055l2.314-3.66h.054v3.715zm3.437 2.177l.7-1.973h2.818l.7 1.973h.885l-2.558-6.967h-.871l-2.558 6.967h.884zm.966-2.722l1.116-3.143h.054l1.116 3.143H74.54zm9.916 4.79c1.252 0 2.259-.572 2.259-1.919V27.66h-.776v.83h-.082c-.176-.272-.503-.898-1.523-.898-1.32 0-2.232 1.047-2.232 2.653 0 1.633.953 2.558 2.218 2.558 1.02 0 1.347-.599 1.524-.884h.068v1.06c0 .872-.612 1.266-1.456 1.266-.95 0-1.282-.5-1.497-.789l-.64.45c.327.547.97 1.047 2.137 1.047zm-.027-2.871c-1.007 0-1.524-.762-1.524-1.85 0-1.062.503-1.92 1.524-1.92.98 0 1.497.79 1.497 1.92 0 1.156-.531 1.85-1.497 1.85zm3.755.803h.803v-3.307c0-.707.558-1.224 1.32-1.224.214 0 .435.04.49.054v-.816a7.732 7.732 0 00-.422-.014c-.626 0-1.17.354-1.36.87h-.055v-.788h-.776v5.225zm5.528.108c1.415 0 2.368-1.075 2.368-2.694 0-1.633-.953-2.707-2.368-2.707s-2.368 1.075-2.368 2.707c0 1.62.953 2.694 2.368 2.694zm0-.72c-1.075 0-1.565-.926-1.565-1.974 0-1.047.49-1.986 1.565-1.986s1.565.939 1.565 1.986c0 1.048-.49 1.973-1.565 1.973zm6.886-1.525c0 .98-.749 1.429-1.347 1.429-.667 0-1.143-.49-1.143-1.252V27.66h-.803v3.32c0 1.333.707 1.973 1.687 1.973.79 0 1.307-.422 1.551-.953h.055v.885h.802V27.66h-.802v3.088zm2.273 4.096h.803v-2.762h.068c.177.286.517.911 1.524.911 1.306 0 2.218-1.047 2.218-2.707 0-1.647-.912-2.694-2.232-2.694-1.021 0-1.333.626-1.51.898h-.096v-.83h-.775v7.184zm.789-4.572c0-1.17.517-1.96 1.497-1.96 1.02 0 1.524.858 1.524 1.96 0 1.116-.517 2-1.524 2-.966 0-1.497-.816-1.497-2z" fill="#fff" fill-opacity=".5"/><path d="M21.923 43.846c12.108 0 21.923-9.815 21.923-21.923C43.846 9.815 34.031 0 21.923 0 9.815 0 0 9.815 0 21.923c0 12.108 9.815 21.923 21.923 21.923z" fill="url(#paint0_radial)"/><g filter="url(#filter0_d)"><path d="M15.494 20.165c-.323-2.33-2.115-3.683-4.44-3.683-2.74 0-4.805 1.998-4.805 5.389 0 3.385 2.038 5.388 4.804 5.388 2.495 0 4.149-1.614 4.44-3.616l-1.915-.01c-.24 1.229-1.244 1.92-2.5 1.92-1.7 0-2.919-1.275-2.919-3.682 0-2.367 1.21-3.683 2.925-3.683 1.275 0 2.274.722 2.494 1.977h1.916zm2.461 6.95h4.246c2.402 0 3.58-1.224 3.58-2.858 0-1.587-1.126-2.52-2.243-2.576v-.102c1.024-.241 1.834-.958 1.834-2.233 0-1.563-1.127-2.72-3.401-2.72h-4.016v10.49zm1.9-1.587v-3.073h2.095c1.173 0 1.9.717 1.9 1.654 0 .835-.573 1.419-1.951 1.419h-2.044zm0-4.441v-2.894h1.921c1.117 0 1.695.59 1.695 1.398 0 .922-.747 1.496-1.736 1.496h-1.88zm11.855 6.028c3.196 0 5.091-1.977 5.091-5.255 0-3.267-1.895-5.234-5.02-5.234h-3.625v10.49h3.554zm-1.654-1.644V18.27h1.618c2.131 0 3.242 1.188 3.242 3.59 0 2.413-1.11 3.611-3.298 3.611h-1.562z" fill="#fff"/></g></g><defs><radialGradient id="paint0_radial" cx="0" cy="0" r="1" gradientUnits="userSpaceOnUse" gradientTransform="rotate(90 3.534 18.39) scale(28.9904)"><stop stop-color="#3A6CFF"/><stop offset="1" stop-color="#0B43EC"/></radialGradient><clipPath id="clip0"><path fill="#fff" d="M0 0h135v43.846H0z"/></clipPath><filter id="filter0_d" x="-3.751" y="16.482" width="50.552" height="30.776" filterUnits="userSpaceOnUse" color-interpolation-filters="sRGB"><feFlood flood-opacity="0" result="BackgroundImageFix"/><feColorMatrix in="SourceAlpha" values="0 0 0 0 0 0 0 0 0 0 0 0 0 0 0 0 0 0 127 0" result="hardAlpha"/><feOffset dy="10"/><feGaussianBlur stdDeviation="5"/><feColorMatrix values="0 0 0 0 0 0 0 0 0 0 0 0 0 0 0 0 0 0 0.05 0"/><feBlend in2="BackgroundImageFix" result="effect1_dropShadow"/><feBlend in="SourceGraphic" in2="effect1_dropShadow" result="shape"/></filter></defs></svg>