<svg width="28" height="28" fill="none" xmlns="http://www.w3.org/2000/svg"><path d="M6.125 7.733a3.132 3.132 0 013.129-3.128 3.132 3.132 0 013.128 3.128v2.522a2.127 2.127 0 001.504-2.03V2.122A2.126 2.126 0 0011.763 0H6.744c-1.17 0-2.122.952-2.122 2.123v6.101c0 .956.634 1.765 1.503 2.03v-2.52zM22.165 0h-5.019c-1.17 0-2.123.952-2.123 2.123v6.101c0 1.17.953 2.123 2.123 2.123h5.019c1.17 0 2.122-.952 2.122-2.123V2.123C24.287.953 23.335 0 22.165 0z" fill="#fff"/><path d="M18.277 13.188c-.83 0-1.504.673-1.504 1.503v-.766a1.504 1.504 0 00-3.008 0v-.644a1.504 1.504 0 00-3.008 0V7.733a1.504 1.504 0 00-3.007 0v12.912l-.066-.009-.926-3.965a1.504 1.504 0 00-1.807-1.123c-.85 0-1.386.677-1.193 1.504l1.074 4.598c.562 3.598 3.47 6.35 3.47 6.35h9.137a14.237 14.237 0 002.341-7.82l.001-5.489c0-.83-.673-1.503-1.504-1.503z" fill="#fff"/></svg>