<svg width="28" height="28" fill="none" xmlns="http://www.w3.org/2000/svg"><path d="M6.543 5.677L17.706 2.63l-.592-1.194a1.573 1.573 0 00-2.106-.711L5.015 5.677h1.528zM21.17 2.718c-.138 0-.276.02-.415.057l-2.622.717-8.008 2.185h13.052l-.491-1.798a1.57 1.57 0 00-1.516-1.16zm3.645 4.06H1.575a1.57 1.57 0 00-1.518 1.16C.022 8.07 0 8.208 0 8.35v17.517c0 .867.704 1.572 1.572 1.572h23.24c.867 0 1.572-.704 1.572-1.572V21.48h-9.33a2.674 2.674 0 01-2.672-2.672V15.31c0-.723.29-1.38.758-1.861a2.646 2.646 0 011.912-.808h9.331V8.35a1.568 1.568 0 00-1.57-1.572z" fill="#fff"/><path d="M27.487 14.145a1.569 1.569 0 00-1.06-.412h-9.372c-.868 0-1.573.704-1.573 1.572v3.5c0 .867.705 1.572 1.573 1.572h9.372c.18 0 .35-.032.51-.085.208-.07.393-.183.55-.327.315-.286.513-.701.513-1.16v-3.5c0-.459-.198-.874-.513-1.16zm-7.15 3.223a.786.786 0 01-.786.786h-.522a.786.786 0 01-.786-.786v-.522a.795.795 0 01.786-.786h.522c.434 0 .786.352.786.786v.522z" fill="#fff"/></svg>