<svg width="28" height="28" fill="none" xmlns="http://www.w3.org/2000/svg"><path d="M14 0C6.269 0 0 6.269 0 14s6.269 14 14 14a2.33 2.33 0 002.333-2.333c0-.607-.225-1.152-.606-1.564a2.311 2.311 0 01-.584-1.548 2.33 2.33 0 012.334-2.333h2.745A7.78 7.78 0 0028 12.444C28 5.57 21.731 0 14 0zM5.444 14a2.33 2.33 0 01-2.333-2.333 2.33 2.33 0 012.333-2.334 2.33 2.33 0 012.334 2.334A2.33 2.33 0 015.444 14zm4.667-6.222a2.33 2.33 0 01-2.333-2.334 2.33 2.33 0 012.333-2.333 2.33 2.33 0 012.333 2.333 2.33 2.33 0 01-2.333 2.334zm7.778 0a2.33 2.33 0 01-2.333-2.334 2.33 2.33 0 012.333-2.333 2.33 2.33 0 012.333 2.333 2.33 2.33 0 01-2.333 2.334zM22.555 14a2.33 2.33 0 01-2.333-2.333 2.33 2.33 0 012.333-2.334 2.33 2.33 0 012.334 2.334A2.33 2.33 0 0122.555 14z" fill="#fff"/></svg>