<svg width="28" height="28" fill="none" xmlns="http://www.w3.org/2000/svg"><path d="M8.258 23.023a3.284 3.284 0 00-3.282-3.28 3.284 3.284 0 00-3.28 3.28v1.641c0 .904-.792 1.695-1.696 1.695V28h3.336c2.714 0 4.922-2.262 4.922-4.976zM13.73 6.869a.82.82 0 10.425 1.584.82.82 0 10-.425-1.584zm-4.64 6.225a.82.82 0 00.425-1.585h-.001c-.233-.062-.296-.015-.46.039.009.494.016 1.007.019 1.538l.016.008zm9.04 7.032a.82.82 0 10-1.583.424.82.82 0 001.584-.423v-.001zM20.86 9.94a.821.821 0 10-1.16-1.16.821.821 0 001.16 1.16z" fill="#fff"/><path d="M15.688 1.652c-2.694.098-5.168 1.163-7.14 2.515.221 1.505.377 3.377.46 5.693a2.458 2.458 0 012.67 3.08 2.461 2.461 0 01-2.373 1.824c-.078 0-.157-.024-.236-.032-.01 1.313-.04 2.61-.096 3.85.84.35 1.497.814 1.926 1.417.868 1.22.637 2.65.545 3.06-.304 1.363.5 2.75 1.875 3.015.778.15 1.56.223 2.336.223 6.747 0 12.4-5.48 12.345-12.395-.058-7.013-6.127-12.483-12.312-12.25zM18.54 7.62a2.465 2.465 0 013.482 0c.96.96.96 2.52 0 3.48v.001a2.467 2.467 0 01-3.48 0 2.467 2.467 0 01-.002-3.481zm-6.974.677a2.459 2.459 0 011.74-3.013 2.467 2.467 0 013.014 1.74 2.459 2.459 0 01-1.74 3.014 2.458 2.458 0 01-3.014-1.74zm6.41 14.419a2.463 2.463 0 01-3.013-1.74 2.459 2.459 0 011.74-3.014 2.458 2.458 0 013.013 1.741 2.458 2.458 0 01-1.74 3.013zm6.38-6.38a2.459 2.459 0 01-3.013 1.74 2.458 2.458 0 01-1.74-3.014 2.46 2.46 0 114.754 1.273z" fill="#fff"/><path d="M22.192 14.906a.82.82 0 10-.425 1.584.82.82 0 00.425-1.584zM7.428 14.82c.002-.274.01-.544.01-.82 0-6.361-.428-14-2.461-14-2.034 0-2.461 7.64-2.461 14 0 .276.007.546.01.82h4.902zm-2.451 3.282c.854 0 1.647.238 2.348.623a94.15 94.15 0 00.081-2.264h-4.86c.02.77.047 1.528.082 2.264a4.86 4.86 0 012.349-.623z" fill="#fff"/></svg>