<svg width="28" height="28" fill="none" xmlns="http://www.w3.org/2000/svg"><path d="M9.02 5.192V.49L4.319 5.192H9.02z" fill="#fff"/><path d="M23.378 0H10.692v6.028a.836.836 0 01-.836.835H3.828v20.302c0 .46.374.835.836.835h18.714a.835.835 0 00.836-.835V.835A.835.835 0 0023.378 0zm-7.191 12.32a.836.836 0 011.181 0l.379.379 1.129-1.129a.836.836 0 011.181 1.182l-1.72 1.72a.832.832 0 01-1.18 0l-.97-.97a.836.836 0 010-1.182zm0-3.988a.835.835 0 011.181 0l.379.378 1.129-1.129a.836.836 0 111.181 1.182l-1.72 1.72a.833.833 0 01-1.18 0l-.97-.97a.836.836 0 010-1.181zm0 7.978a.835.835 0 011.181 0l.379.378 1.129-1.129a.836.836 0 111.181 1.182l-1.72 1.72a.833.833 0 01-1.18 0l-.97-.97a.836.836 0 010-1.181zm3.87 4.42l-1.72 1.72a.832.832 0 01-1.18 0l-.97-.97a.836.836 0 011.182-1.181l.378.378 1.129-1.129a.836.836 0 011.181 1.182zM8.576 9.056h5.108a.836.836 0 110 1.671H8.575a.836.836 0 110-1.67zm0 3.99h5.108a.836.836 0 010 1.67H8.575a.836.836 0 110-1.67zm0 3.988h5.108a.836.836 0 010 1.671H8.575a.836.836 0 110-1.67zm0 3.99h5.108a.836.836 0 010 1.67H8.575a.836.836 0 110-1.67z" fill="#fff"/></svg>